<?xml version="1.0" encoding="utf-8"?>
<!-- Generator: Adobe Illustrator 27.1.1, SVG Export Plug-In . SVG Version: 6.00 Build 0)  -->
<svg version="1.1" id="Ebene_1" xmlns="http://www.w3.org/2000/svg" xmlns:xlink="http://www.w3.org/1999/xlink" x="0px" y="0px"
	 viewBox="0 0 148.2 127.3" style="enable-background:new 0 0 148.2 148.2;" xml:space="preserve">
<style type="text/css">
	.st0{fill:#0A0A07;}
	.st1{fill:#73B5B3;}
	.st2{fill:#060805;}
</style>
<path class="st0" d="M50.7,31.6c-0.6-0.5-1.4-0.5-1.9,0L21.3,55c-0.3,0.3-0.5,0.7-0.5,1.1v35.2c0,0.8,0.7,1.5,1.5,1.5h6.5
	c0.8,0,1.5-0.7,1.5-1.5v-1c0-0.8-0.7-1.5-1.5-1.5h-4V57.3l25-21.3l23.6,19.8c0.3,0.3,0.7,0.4,1.1,0.3c0.4,0,0.8-0.2,1-0.5l0.6-0.8
	c0.5-0.6,0.4-1.6-0.2-2.1L50.7,31.6z M115.6,37.4L79.3,7c-0.6-0.5-1.4-0.5-1.9,0L53.9,27c-0.6,0.5-0.7,1.5-0.2,2.1l0.2,0.2l0.8,0.6
	c0.6,0.5,1.4,0.5,1.9,0l21.8-18.5l33.7,28.3v37.9h-4.4c-0.8,0-1.5,0.7-1.5,1.5v1c0,0.8,0.7,1.5,1.5,1.5h6.9c0.8,0,1.5-0.7,1.5-1.5
	V38.5C116.1,38.1,115.9,37.7,115.6,37.4z"/>
<path class="st1" d="M105.8,94l3-1.3c1.9-0.8,4.6-2.1,7.7-3.6c3.2-1.5,6.8-3.4,10.6-5.7s7.7-4.9,11.1-8.1c1.7-1.6,3.2-3.3,4.2-5.3
	c0.5-1,0.8-2,0.9-3.1v-0.8c0-0.3,0-0.5-0.1-0.8c-0.1-0.5-0.2-1-0.4-1.5c-0.8-1.9-2.5-3.3-4.2-4.2c-1.8-0.9-3.6-1.5-5.3-1.8
	c-3.4-0.8-6.3-1-8.4-1.1s-3.2-0.1-3.2-0.1c-0.1,0-0.2-0.1-0.2-0.2s0.1-0.2,0.2-0.2h0.1c0,0,0.3-0.1,0.8-0.2c0.6-0.1,1.4-0.4,2.4-0.5
	c1.1-0.2,2.3-0.4,3.8-0.5c1.5-0.1,3.2-0.2,5.1,0s4.1,0.5,6.4,1.5c1.1,0.5,2.3,1.1,3.5,2s2.3,2.2,3,3.8c0.4,0.8,0.7,1.6,0.9,2.5
	c0.1,0.4,0.2,1,0.2,1.4v1.1c-0.1,1.9-0.5,3.6-1.2,5c-1.4,2.9-3.2,5-5.1,6.8s-3.9,3.3-6,4.7s-4.1,2.5-6.2,3.6c-2.1,1-4.1,1.9-6,2.7
	c-1,0.4-1.9,0.8-2.8,1.1l-2.7,0.9c-0.9,0.3-1.7,0.5-2.5,0.7s-1.6,0.4-2.3,0.6c-1.4,0.4-2.7,0.6-3.8,0.8c-1,0.2-1.9,0.3-2.4,0.4
	c-0.6,0.1-0.9,0.1-0.9,0.1h-0.1c-0.1,0-0.3-0.1-0.3-0.2C105.7,94.1,105.8,94,105.8,94L105.8,94z M17.1,90.6c0,0-0.7,0.4-1.8,1.2
	c-0.6,0.4-1.2,0.9-2,1.5c-0.4,0.3-0.8,0.6-1.2,1c-0.4,0.3-0.8,0.7-1.3,1.1c-0.9,0.8-1.8,1.7-2.6,2.7s-1.7,2.2-2.3,3.5s-1,2.8-1,4.2
	c0,1.5,0.5,2.9,1.5,4s2.3,1.9,3.8,2.4c1.4,0.6,2.9,0.9,4.3,1.2c2.9,0.5,5.7,0.6,8,0.6c2.4,0,4.4,0,5.7-0.1h2.3
	c0.1,0,0.2,0.1,0.2,0.2s0,0.2-0.1,0.2l-0.1,0.1c0,0-0.2,0.1-0.5,0.3c-0.4,0.2-0.9,0.4-1.6,0.7s-1.5,0.6-2.5,0.9s-2.1,0.6-3.3,0.9
	s-2.6,0.5-4.1,0.6s-3.1,0.2-4.7,0.1c-0.8-0.1-1.7-0.2-2.6-0.3s-1.8-0.4-2.8-0.7c-0.9-0.3-1.9-0.7-2.9-1.3s-1.9-1.3-2.8-2.3
	c-1.4-1.5-2.3-3.4-2.6-5.4c0-0.4-0.1-0.8-0.1-1.2v-1.5c0-0.3,0.1-0.6,0.1-0.9c0.1-0.6,0.2-1.1,0.4-1.6c0.3-1.1,0.8-2,1.3-2.8
	c1-1.7,2.2-3,3.4-4c0.6-0.5,1.2-1,1.8-1.4s1.2-0.8,1.7-1.1c1.1-0.7,2.2-1.2,3.2-1.5c0.9-0.4,1.9-0.7,2.6-0.9s1.3-0.3,1.7-0.4
	c0.4-0.1,0.6-0.1,0.6-0.1h0.1C17,90.5,17.1,90.6,17.1,90.6C17.2,90.4,17.2,90.5,17.1,90.6L17.1,90.6z"/>
<g>
	<g>
		<path class="st2" d="M45.7,85.9c4.3,0.7,7.7,2.8,7.7,6.7c0,2.9-1.5,4.9-3.6,6.2c-2.1,1.2-5,1.7-8.1,1.7h-9.8v-0.6
			c2.9-0.5,3.2-0.8,3.2-4.3V79.1c0-3.5-0.4-3.6-3.2-4.1v-0.6h11.3c3.3,0,5.1,0.5,6.5,1.4c1.4,1,2.2,2.4,2.2,4.3
			C51.9,83.7,48.5,85.3,45.7,85.9z M41.8,85.8c3.6,0,4.9-1.5,4.9-4.9c0-4.2-2.1-5.6-4.5-5.6c-0.7,0-1.4,0.1-1.8,0.4
			C40,76,40,76.6,40,77.7v8.1H41.8z M40.1,95.8c0,2.8,1.1,3.7,3.3,3.7c2.5,0,4.3-2.2,4.3-6.5c0-4-1.6-6.2-6.1-6.2H40L40.1,95.8
			L40.1,95.8z"/>
		<path class="st2" d="M76.2,94.2c-0.2,1.4-1,5.3-1.2,6.3H55.4v-0.6c3.5-0.5,3.7-0.7,3.7-4.3V79.2c0-3.6-0.2-3.9-3.1-4.3v-0.6h12.2
			c3.9,0,5.5,0,5.8-0.1c0,1.5,0.2,4.1,0.4,5.8l-0.6,0.1c-0.3-1-0.8-2.5-1.7-3.5c-0.7-0.9-1.6-1.1-4-1.1h-3c-0.8,0-1,0.2-1,1v9.6H68
			c3.2,0,3.3-0.9,3.9-3.4h0.6v8h-0.6c-0.6-2.4-0.7-3.4-3.9-3.4h-3.9v8.6c0,2.8,0.6,3.3,3.1,3.4h2.4c2.4,0,2.9-0.3,3.9-1.4
			c0.7-0.8,1.4-2.2,2.1-3.8L76.2,94.2z"/>
		<path class="st2" d="M104.3,89c-2.1,0.6-2.6,0.8-2.6,3v3.8c0,1.4,0.1,2.8,0.3,3.9c-2.3,0.4-6.3,1.4-9.4,1.4
			c-9.3,0-14.4-5.5-14.4-13.4c0-9.3,7.1-13.9,15.3-13.9c3.9,0,6.8,0.7,7.9,0.8c0.1,1.8,0.2,3.9,0.4,6.2l-0.6,0.1
			c-0.5-2.3-1.7-4.6-4.4-5.5c-1.3-0.4-2.7-0.6-4.2-0.6c-5.3,0-8.7,4.1-8.7,11.9c0,7.2,2.1,13.4,8.8,13.4c0.8,0,2.3-0.2,3-0.6
			c0.6-0.4,1-0.8,1-2.9v-4c0-2.6-0.4-3-3.6-3.5v-0.6h11.1L104.3,89L104.3,89z"/>
	</g>
</g>
</svg>
